<svg width="11" height="12" viewBox="0 0 11 12" fill="none" xmlns="http://www.w3.org/2000/svg">
<path d="M5.5 11.4998C8.54793 11.4998 11 9.04781 11 6C11 2.95219 8.54793 0.500229 5.5 0.500229C2.45206 0.500229 0 2.95219 0 6C0 9.04781 2.45206 11.4998 5.5 11.4998Z" fill="#2775CA"/>
<path d="M7.01222 6.87078C7.01222 6.06875 6.53097 5.79376 5.56847 5.6792C4.88097 5.58752 4.74347 5.40421 4.74347 5.08336C4.74347 4.7625 4.97266 4.55631 5.43097 4.55631C5.84347 4.55631 6.07266 4.69381 6.18722 5.03754C6.21016 5.10629 6.27891 5.1521 6.34766 5.1521H6.71429C6.80597 5.1521 6.87472 5.08336 6.87472 4.99173V4.9688C6.78304 4.46463 6.37054 4.07508 5.84347 4.02927V3.47929C5.84347 3.38761 5.77472 3.31886 5.66016 3.29593H5.31641C5.22472 3.29593 5.15597 3.36468 5.13304 3.47929V4.00633C4.44554 4.09802 4.01016 4.55631 4.01016 5.12922C4.01016 5.88544 4.46847 6.18331 5.43097 6.29793C6.07266 6.41249 6.27891 6.54998 6.27891 6.91665C6.27891 7.28332 5.95804 7.53538 5.52266 7.53538C4.92679 7.53538 4.72054 7.28327 4.65179 6.93953C4.62891 6.8479 4.56016 6.80204 4.49141 6.80204H4.10179C4.01016 6.80204 3.94141 6.87078 3.94141 6.96246V6.9854C4.03304 7.55825 4.39972 7.97074 5.15597 8.08535V8.63533C5.15597 8.72696 5.22472 8.7957 5.33929 8.81864H5.68304C5.77472 8.81864 5.84347 8.74989 5.86641 8.63533V8.08535C6.55391 7.97074 7.01222 7.48951 7.01222 6.87078Z" fill="white"/>
<path d="M4.33072 9.27694C2.54322 8.63534 1.62654 6.64167 2.29116 4.87712C2.63491 3.91466 3.39116 3.18138 4.33072 2.83764C4.42241 2.79183 4.46822 2.72308 4.46822 2.60846V2.28766C4.46822 2.19598 4.42241 2.12723 4.33072 2.10435C4.30779 2.10435 4.26197 2.10435 4.23904 2.12723C2.06197 2.81471 0.870285 5.12923 1.55779 7.30621C1.97029 8.58947 2.95572 9.57486 4.23904 9.98735C4.33072 10.0332 4.42241 9.98735 4.44529 9.89567C4.46822 9.87279 4.46822 9.84985 4.46822 9.80404V9.48318C4.46822 9.41443 4.39947 9.32281 4.33072 9.27694ZM6.75991 2.12723C6.66822 2.08142 6.57654 2.12723 6.55366 2.21892C6.53072 2.24185 6.53072 2.26473 6.53072 2.3106V2.6314C6.53072 2.72308 6.59947 2.81471 6.66822 2.86057C8.45572 3.50218 9.37241 5.49585 8.70779 7.26039C8.36404 8.22285 7.60779 8.95614 6.66822 9.29987C6.57654 9.34569 6.53072 9.41444 6.53072 9.52905V9.84985C6.53072 9.94153 6.57654 10.0103 6.66822 10.0332C6.69116 10.0332 6.73697 10.0332 6.75991 10.0103C8.93697 9.32281 10.1287 7.00828 9.44116 4.83131C9.02866 3.52511 8.02029 2.53972 6.75991 2.12723Z" fill="white"/>
</svg>
