<svg width="23" height="23" viewBox="0 0 23 23" fill="none" xmlns="http://www.w3.org/2000/svg">
<rect x="9" y="3" width="1" height="1" fill="#FCD875"/>
<rect x="8" y="4" width="1" height="1" fill="#FCD875"/>
<rect x="7" y="4" width="1" height="1" fill="#FCD875"/>
<rect x="6" y="5" width="1" height="1" fill="#FCD875"/>
<rect x="5" y="6" width="1" height="1" fill="#FCD875"/>
<rect x="4" y="7" width="1" height="1" fill="#FCD875"/>
<rect x="4" y="8" width="1" height="1" fill="#FCD875"/>
<rect x="3" y="9" width="1" height="1" fill="#FCD875"/>
<rect x="3" y="10" width="1" height="1" fill="#FCD875"/>
<rect x="3" y="11" width="1" height="1" fill="#FCD875"/>
<rect x="3" y="12" width="1" height="1" fill="#FCD875"/>
<rect x="3" y="13" width="1" height="1" fill="#FCD875"/>
<rect x="3" y="14" width="1" height="1" fill="#FCD875"/>
<rect x="5" y="16" width="1" height="1" fill="#FCD875"/>
<rect x="6" y="17" width="1" height="1" fill="#FCD875"/>
<rect x="7" y="18" width="1" height="1" fill="#FCD875"/>
<rect x="8" y="18" width="1" height="1" fill="#FCD875"/>
<rect x="4" y="15" width="1" height="1" fill="#FCD875"/>
<rect x="9" y="19" width="1" height="1" fill="#FCD875"/>
<rect x="10" y="3" width="1" height="1" fill="#FCD875"/>
<rect x="10" y="19" width="1" height="1" fill="#FCD875"/>
<rect x="11" y="3" width="1" height="1" fill="#FCD875"/>
<rect x="11" y="19" width="1" height="1" fill="#FCD875"/>
<rect x="12" y="3" width="1" height="1" fill="#FCD875"/>
<rect x="12" y="19" width="1" height="1" fill="#FCD875"/>
<rect x="13" y="3" width="1" height="1" fill="#FCD875"/>
<rect x="14" y="4" width="1" height="1" fill="#FCD875"/>
<rect x="15" y="4" width="1" height="1" fill="#FCD875"/>
<rect x="16" y="5" width="1" height="1" fill="#FCD875"/>
<rect x="17" y="6" width="1" height="1" fill="#FCD875"/>
<rect x="18" y="7" width="1" height="1" fill="#FCD875"/>
<rect x="18" y="8" width="1" height="1" fill="#FCD875"/>
<rect x="19" y="9" width="1" height="1" fill="#FCD875"/>
<rect x="19" y="10" width="1" height="1" fill="#FCD875"/>
<rect x="19" y="11" width="1" height="1" fill="#FCD875"/>
<rect x="19" y="12" width="1" height="1" fill="#FCD875"/>
<rect x="19" y="13" width="1" height="1" fill="#FCD875"/>
<rect x="19" y="14" width="1" height="1" fill="#FCD875"/>
<rect x="18" y="15" width="1" height="1" fill="#FCD875"/>
<rect x="17" y="16" width="1" height="1" fill="#FCD875"/>
<rect x="16" y="17" width="1" height="1" fill="#FCD875"/>
<rect x="15" y="18" width="1" height="1" fill="#FCD875"/>
<rect x="14" y="18" width="1" height="1" fill="#FCD875"/>
<rect x="13" y="19" width="1" height="1" fill="#FCD875"/>
<rect x="9" width="1" height="1" fill="black"/>
<rect x="8" width="1" height="1" fill="black"/>
<rect x="9" y="22" width="1" height="1" fill="black"/>
<rect x="8" y="22" width="1" height="1" fill="black"/>
<rect x="10" width="1" height="1" fill="black"/>
<rect x="10" y="22" width="1" height="1" fill="black"/>
<rect x="11" width="1" height="1" fill="black"/>
<rect x="11" y="22" width="1" height="1" fill="black"/>
<rect x="12" width="1" height="1" fill="black"/>
<rect x="12" y="22" width="1" height="1" fill="black"/>
<rect x="13" width="1" height="1" fill="black"/>
<rect x="13" y="22" width="1" height="1" fill="black"/>
<rect x="14" width="1" height="1" fill="black"/>
<rect x="14" y="22" width="1" height="1" fill="black"/>
<rect x="15" y="1" width="1" height="1" fill="black"/>
<rect x="16" y="1" width="1" height="1" fill="black"/>
<rect x="17" y="2" width="1" height="1" fill="black"/>
<rect x="18" y="3" width="1" height="1" fill="black"/>
<rect x="19" y="4" width="1" height="1" fill="black"/>
<rect x="20" y="5" width="1" height="1" fill="black"/>
<rect x="21" y="6" width="1" height="1" fill="black"/>
<rect x="21" y="7" width="1" height="1" fill="black"/>
<rect x="22" y="8" width="1" height="1" fill="black"/>
<rect x="22" y="9" width="1" height="1" fill="black"/>
<rect x="22" y="10" width="1" height="1" fill="black"/>
<rect x="22" y="11" width="1" height="1" fill="black"/>
<rect x="22" y="12" width="1" height="1" fill="black"/>
<rect x="22" y="13" width="1" height="1" fill="black"/>
<rect x="22" y="14" width="1" height="1" fill="black"/>
<rect width="1" height="1" transform="matrix(1 0 0 -1 15 22)" fill="black"/>
<rect width="1" height="1" transform="matrix(1 0 0 -1 16 22)" fill="black"/>
<rect width="1" height="1" transform="matrix(1 0 0 -1 17 21)" fill="black"/>
<rect width="1" height="1" transform="matrix(1 0 0 -1 18 20)" fill="black"/>
<rect width="1" height="1" transform="matrix(1 0 0 -1 19 19)" fill="black"/>
<rect width="1" height="1" transform="matrix(1 0 0 -1 20 18)" fill="black"/>
<rect width="1" height="1" transform="matrix(1 0 0 -1 21 17)" fill="black"/>
<rect width="1" height="1" transform="matrix(1 0 0 -1 21 16)" fill="black"/>
<rect width="1" height="1" transform="matrix(1 0 0 -1 22 15)" fill="black"/>
<rect width="1" height="1" transform="matrix(1 0 0 -1 22 14)" fill="black"/>
<rect width="1" height="1" transform="matrix(1 0 0 -1 22 13)" fill="black"/>
<rect width="1" height="1" transform="matrix(1 0 0 -1 22 12)" fill="black"/>
<rect width="1" height="1" transform="matrix(1 0 0 -1 22 11)" fill="black"/>
<rect width="1" height="1" transform="matrix(1 0 0 -1 22 10)" fill="black"/>
<rect width="1" height="1" transform="matrix(1 0 0 -1 22 9)" fill="black"/>
<rect x="8" y="22" width="1" height="1" transform="rotate(180 8 22)" fill="black"/>
<rect x="7" y="22" width="1" height="1" transform="rotate(180 7 22)" fill="black"/>
<rect x="6" y="21" width="1" height="1" transform="rotate(180 6 21)" fill="black"/>
<rect x="5" y="20" width="1" height="1" transform="rotate(180 5 20)" fill="black"/>
<rect x="4" y="19" width="1" height="1" transform="rotate(180 4 19)" fill="black"/>
<rect x="3" y="18" width="1" height="1" transform="rotate(180 3 18)" fill="black"/>
<rect x="2" y="17" width="1" height="1" transform="rotate(180 2 17)" fill="black"/>
<rect x="2" y="16" width="1" height="1" transform="rotate(180 2 16)" fill="black"/>
<rect x="1" y="15" width="1" height="1" transform="rotate(180 1 15)" fill="black"/>
<rect x="1" y="14" width="1" height="1" transform="rotate(180 1 14)" fill="black"/>
<rect x="1" y="13" width="1" height="1" transform="rotate(180 1 13)" fill="black"/>
<rect x="1" y="12" width="1" height="1" transform="rotate(180 1 12)" fill="black"/>
<rect x="1" y="11" width="1" height="1" transform="rotate(180 1 11)" fill="black"/>
<rect x="1" y="10" width="1" height="1" transform="rotate(180 1 10)" fill="black"/>
<rect x="1" y="9" width="1" height="1" transform="rotate(180 1 9)" fill="black"/>
<rect width="1" height="1" transform="matrix(-1 0 0 1 8 1)" fill="black"/>
<rect width="1" height="1" transform="matrix(-1 0 0 1 7 1)" fill="black"/>
<rect width="1" height="1" transform="matrix(-1 0 0 1 6 2)" fill="black"/>
<rect width="1" height="1" transform="matrix(-1 0 0 1 5 3)" fill="black"/>
<rect width="1" height="1" transform="matrix(-1 0 0 1 4 4)" fill="black"/>
<rect width="1" height="1" transform="matrix(-1 0 0 1 3 5)" fill="black"/>
<rect width="1" height="1" transform="matrix(-1 0 0 1 2 6)" fill="black"/>
<rect width="1" height="1" transform="matrix(-1 0 0 1 2 7)" fill="black"/>
<rect width="1" height="1" transform="matrix(-1 0 0 1 1 8)" fill="black"/>
<rect width="1" height="1" transform="matrix(-1 0 0 1 1 9)" fill="black"/>
<rect width="1" height="1" transform="matrix(-1 0 0 1 1 10)" fill="black"/>
<rect width="1" height="1" transform="matrix(-1 0 0 1 1 11)" fill="black"/>
<rect width="1" height="1" transform="matrix(-1 0 0 1 1 12)" fill="black"/>
<rect width="1" height="1" transform="matrix(-1 0 0 1 1 13)" fill="black"/>
<rect width="1" height="1" transform="matrix(-1 0 0 1 1 14)" fill="black"/>
<rect x="8" y="1" width="1" height="1" fill="#F7C116"/>
<rect x="8" y="2" width="1" height="1" fill="#F7C116"/>
<rect x="7" y="2" width="1" height="1" fill="#F7C116"/>
<rect x="6" y="2" width="1" height="1" fill="#F7C116"/>
<rect x="6" y="3" width="1" height="1" fill="#F7C116"/>
<rect x="6" y="4" width="1" height="1" fill="#F7C116"/>
<rect x="5" y="5" width="1" height="1" fill="#F7C116"/>
<rect x="4" y="5" width="1" height="1" fill="#E79E15"/>
<rect x="4" y="4" width="1" height="1" fill="#E79E15"/>
<rect x="5" y="5" width="1" height="1" fill="#E79E15"/>
<rect x="4" y="6" width="1" height="1" fill="#E79E15"/>
<rect x="5" y="7" width="1" height="1" fill="#E38F13"/>
<rect x="6" y="6" width="1" height="1" fill="#EE9F10"/>
<rect x="6" y="7" width="1" height="1" fill="#EE9F10"/>
<rect x="7" y="5" width="1" height="1" fill="#EE9F10"/>
<rect x="7" y="6" width="1" height="1" fill="#EE9F10"/>
<rect x="7" y="7" width="1" height="1" fill="#EE9F10"/>
<rect x="7" y="8" width="1" height="1" fill="#EE9F10"/>
<rect x="8" y="5" width="1" height="1" fill="#EE9F10"/>
<rect x="8" y="6" width="1" height="1" fill="#EE9F10"/>
<rect x="8" y="7" width="1" height="1" fill="#EE9F10"/>
<rect x="8" y="8" width="1" height="1" fill="#EE9F10"/>
<rect x="8" y="9" width="1" height="1" fill="#EE9F10"/>
<rect x="9" y="5" width="1" height="1" fill="#EE9F10"/>
<rect x="9" y="6" width="1" height="1" fill="#EE9F10"/>
<rect x="9" y="7" width="1" height="1" fill="#EE9F10"/>
<rect x="9" y="8" width="1" height="1" fill="#EE9F10"/>
<rect x="9" y="9" width="1" height="1" fill="#EE9F10"/>
<rect x="9" y="4" width="1" height="1" fill="#EE9F10"/>
<rect x="11" y="4" width="1" height="1" fill="#EE9F10"/>
<rect x="11" y="4" width="1" height="1" fill="#EE9F10"/>
<rect x="11" y="5" width="1" height="1" fill="#EE9F10"/>
<rect x="11" y="6" width="1" height="1" fill="#EE9F10"/>
<rect x="11" y="7" width="1" height="1" fill="#EE9F10"/>
<rect x="11" y="8" width="1" height="1" fill="#EE9F10"/>
<rect x="11" y="9" width="1" height="1" fill="#EE9F10"/>
<rect x="12" y="4" width="1" height="1" fill="#EE9F10"/>
<rect x="12" y="5" width="1" height="1" fill="#EE9F10"/>
<rect x="12" y="6" width="1" height="1" fill="#EE9F10"/>
<rect x="12" y="7" width="1" height="1" fill="#EE9F10"/>
<rect x="12" y="8" width="1" height="1" fill="#EE9F10"/>
<rect x="12" y="9" width="1" height="1" fill="#EE9F10"/>
<rect x="12" y="10" width="1" height="1" fill="#EE9F10"/>
<rect x="12" y="11" width="1" height="1" fill="#EE9F10"/>
<rect x="13" y="4" width="1" height="1" fill="#EE9F10"/>
<rect x="13" y="5" width="1" height="1" fill="#EE9F10"/>
<rect x="13" y="6" width="1" height="1" fill="#EE9F10"/>
<rect x="13" y="7" width="1" height="1" fill="#EE9F10"/>
<rect x="13" y="8" width="1" height="1" fill="#EE9F10"/>
<rect x="13" y="9" width="1" height="1" fill="#EE9F10"/>
<rect x="13" y="10" width="1" height="1" fill="#EE9F10"/>
<rect x="13" y="11" width="1" height="1" fill="#EE9F10"/>
<rect x="13" y="12" width="1" height="1" fill="#EE9F10"/>
<rect x="14" y="5" width="1" height="1" fill="#EE9F10"/>
<rect x="14" y="6" width="1" height="1" fill="#EE9F10"/>
<rect x="14" y="7" width="1" height="1" fill="#EE9F10"/>
<rect x="14" y="8" width="1" height="1" fill="#EE9F10"/>
<rect x="14" y="9" width="1" height="1" fill="#EE9F10"/>
<rect x="14" y="10" width="1" height="1" fill="#EE9F10"/>
<rect x="14" y="11" width="1" height="1" fill="#EE9F10"/>
<rect x="14" y="12" width="1" height="1" fill="#EE9F10"/>
<rect x="14" y="13" width="1" height="1" fill="#EE9F10"/>
<rect x="15" y="5" width="1" height="1" fill="#EE9F10"/>
<rect x="15" y="6" width="1" height="1" fill="#EE9F10"/>
<rect x="15" y="7" width="1" height="1" fill="#EE9F10"/>
<rect x="15" y="8" width="1" height="1" fill="#EE9F10"/>
<rect x="15" y="9" width="1" height="1" fill="#EE9F10"/>
<rect x="15" y="10" width="1" height="1" fill="#EE9F10"/>
<rect x="15" y="11" width="1" height="1" fill="#EE9F10"/>
<rect x="15" y="12" width="1" height="1" fill="#EE9F10"/>
<rect x="15" y="13" width="1" height="1" fill="#EE9F10"/>
<rect x="15" y="14" width="1" height="1" fill="#EE9F10"/>
<rect x="16" y="6" width="1" height="1" fill="#EE9F10"/>
<rect x="16" y="7" width="1" height="1" fill="#EE9F10"/>
<rect x="16" y="8" width="1" height="1" fill="#EE9F10"/>
<rect x="16" y="9" width="1" height="1" fill="#EE9F10"/>
<rect x="16" y="10" width="1" height="1" fill="#EE9F10"/>
<rect x="16" y="11" width="1" height="1" fill="#EE9F10"/>
<rect x="16" y="12" width="1" height="1" fill="#EE9F10"/>
<rect x="16" y="13" width="1" height="1" fill="#EE9F10"/>
<rect x="16" y="14" width="1" height="1" fill="#EE9F10"/>
<rect x="16" y="15" width="1" height="1" fill="#EE9F10"/>
<rect x="17" y="7" width="1" height="1" fill="#EE9F10"/>
<rect x="17" y="8" width="1" height="1" fill="#EE9F10"/>
<rect x="17" y="9" width="1" height="1" fill="#EE9F10"/>
<rect x="17" y="10" width="1" height="1" fill="#EE9F10"/>
<rect x="17" y="11" width="1" height="1" fill="#EE9F10"/>
<rect x="17" y="12" width="1" height="1" fill="#EE9F10"/>
<rect x="17" y="13" width="1" height="1" fill="#EE9F10"/>
<rect x="17" y="14" width="1" height="1" fill="#EE9F10"/>
<rect x="17" y="15" width="1" height="1" fill="#EE9F10"/>
<rect x="18" y="9" width="1" height="1" fill="#EE9F10"/>
<rect x="18" y="10" width="1" height="1" fill="#EE9F10"/>
<rect x="18" y="11" width="1" height="1" fill="#EE9F10"/>
<rect x="18" y="12" width="1" height="1" fill="#EE9F10"/>
<rect x="18" y="13" width="1" height="1" fill="#EE9F10"/>
<rect x="18" y="14" width="1" height="1" fill="#EE9F10"/>
<rect x="10" y="4" width="1" height="1" fill="#EE9F10"/>
<rect x="10" y="5" width="1" height="1" fill="#EE9F10"/>
<rect x="10" y="6" width="1" height="1" fill="#EE9F10"/>
<rect x="10" y="7" width="1" height="1" fill="#EE9F10"/>
<rect x="10" y="8" width="1" height="1" fill="#EE9F10"/>
<rect x="10" y="9" width="1" height="1" fill="#EE9F10"/>
<rect x="5" y="8" width="1" height="1" fill="#E38F13"/>
<rect x="5" y="9" width="1" height="1" fill="#E38F13"/>
<rect x="4" y="9" width="1" height="1" fill="#E38F13"/>
<rect x="4" y="10" width="1" height="1" fill="#E38F13"/>
<rect x="4" y="11" width="1" height="1" fill="#E38F13"/>
<rect x="4" y="12" width="1" height="1" fill="#E38F13"/>
<rect x="4" y="13" width="1" height="1" fill="#E38F13"/>
<rect x="4" y="14" width="1" height="1" fill="#E38F13"/>
<rect x="5" y="10" width="1" height="1" fill="#E38F13"/>
<rect x="5" y="11" width="1" height="1" fill="#E38F13"/>
<rect x="5" y="12" width="1" height="1" fill="#E38F13"/>
<rect x="5" y="13" width="1" height="1" fill="#E38F13"/>
<rect x="5" y="14" width="1" height="1" fill="#E38F13"/>
<rect x="5" y="15" width="1" height="1" fill="#E38F13"/>
<rect x="6" y="8" width="1" height="1" fill="#E38F13"/>
<rect x="6" y="9" width="1" height="1" fill="#E38F13"/>
<rect x="6" y="10" width="1" height="1" fill="#E38F13"/>
<rect x="6" y="11" width="1" height="1" fill="#E38F13"/>
<rect x="6" y="12" width="1" height="1" fill="#E38F13"/>
<rect x="6" y="13" width="1" height="1" fill="#E38F13"/>
<rect x="6" y="14" width="1" height="1" fill="#E38F13"/>
<rect x="6" y="15" width="1" height="1" fill="#E38F13"/>
<rect x="6" y="16" width="1" height="1" fill="#E38F13"/>
<rect x="7" y="9" width="1" height="1" fill="#E38F13"/>
<rect x="7" y="10" width="1" height="1" fill="#E38F13"/>
<rect x="7" y="11" width="1" height="1" fill="#E38F13"/>
<rect x="7" y="12" width="1" height="1" fill="#E38F13"/>
<rect x="9" y="12" width="1" height="1" fill="#E38F13"/>
<rect x="11" y="12" width="1" height="1" fill="#E38F13"/>
<rect x="7" y="13" width="1" height="1" fill="#E38F13"/>
<rect x="7" y="14" width="1" height="1" fill="#E38F13"/>
<rect x="7" y="15" width="1" height="1" fill="#E38F13"/>
<rect x="7" y="16" width="1" height="1" fill="#E38F13"/>
<rect x="7" y="17" width="1" height="1" fill="#E38F13"/>
<rect x="8" y="10" width="1" height="1" fill="#E38F13"/>
<rect x="8" y="10" width="1" height="1" fill="#E38F13"/>
<rect x="9" y="10" width="1" height="1" fill="#E38F13"/>
<rect x="8" y="11" width="1" height="1" fill="#E38F13"/>
<rect x="8" y="12" width="1" height="1" fill="#E38F13"/>
<rect x="8" y="13" width="1" height="1" fill="#E38F13"/>
<rect x="9" y="13" width="1" height="1" fill="#E38F13"/>
<rect x="10" y="13" width="2" height="1" fill="#E38F13"/>
<rect x="11" y="13" width="2" height="1" fill="#E38F13"/>
<rect x="9" y="12" width="2" height="1" fill="#E38F13"/>
<rect x="8" y="14" width="1" height="1" fill="#E38F13"/>
<rect x="9" y="14" width="1" height="1" fill="#E38F13"/>
<rect x="10" y="14" width="1" height="1" fill="#E38F13"/>
<rect x="11" y="14" width="1" height="1" fill="#E38F13"/>
<rect x="12" y="14" width="1" height="1" fill="#E38F13"/>
<rect x="13" y="14" width="1" height="1" fill="#E38F13"/>
<rect x="8" y="15" width="1" height="1" fill="#E38F13"/>
<rect x="9" y="15" width="1" height="1" fill="#E38F13"/>
<rect x="10" y="15" width="1" height="1" fill="#E38F13"/>
<rect x="11" y="15" width="1" height="1" fill="#E38F13"/>
<rect x="12" y="15" width="1" height="1" fill="#E38F13"/>
<rect x="13" y="15" width="1" height="1" fill="#E38F13"/>
<rect x="14" y="15" width="1" height="1" fill="#E38F13"/>
<rect x="8" y="16" width="1" height="1" fill="#E38F13"/>
<rect x="9" y="16" width="1" height="1" fill="#E38F13"/>
<rect x="10" y="16" width="1" height="1" fill="#E38F13"/>
<rect x="11" y="16" width="1" height="1" fill="#E38F13"/>
<rect x="12" y="16" width="1" height="1" fill="#E38F13"/>
<rect x="13" y="16" width="1" height="1" fill="#E38F13"/>
<rect x="14" y="16" width="1" height="1" fill="#E38F13"/>
<rect x="8" y="17" width="1" height="1" fill="#E38F13"/>
<rect x="9" y="17" width="1" height="1" fill="#E38F13"/>
<rect x="10" y="17" width="1" height="1" fill="#E38F13"/>
<rect x="11" y="17" width="1" height="1" fill="#E38F13"/>
<rect x="12" y="17" width="1" height="1" fill="#E38F13"/>
<rect x="13" y="17" width="1" height="1" fill="#E38F13"/>
<rect x="14" y="17" width="1" height="1" fill="#E38F13"/>
<rect x="9" y="18" width="1" height="1" fill="#E38F13"/>
<rect x="10" y="18" width="1" height="1" fill="#E38F13"/>
<rect x="11" y="18" width="1" height="1" fill="#E38F13"/>
<rect x="12" y="18" width="1" height="1" fill="#E38F13"/>
<rect x="13" y="18" width="1" height="1" fill="#E38F13"/>
<rect x="15" y="17" width="1" height="1" fill="#E38F13"/>
<rect x="15" y="16" width="1" height="1" fill="#E38F13"/>
<rect x="16" y="16" width="1" height="1" fill="#E38F13"/>
<rect x="15" y="15" width="1" height="1" fill="#E38F13"/>
<rect x="14" y="14" width="1" height="1" fill="#E38F13"/>
<rect x="14" y="14" width="1" height="1" fill="#E38F13"/>
<rect x="13" y="13" width="1" height="1" fill="#E38F13"/>
<rect x="12" y="12" width="1" height="1" fill="#E38F13"/>
<rect x="11" y="11" width="1" height="1" fill="#E38F13"/>
<rect x="10" y="10" width="1" height="1" fill="#E38F13"/>
<rect x="3" y="7" width="1" height="1" fill="#E79E15"/>
<rect x="2" y="8" width="1" height="1" fill="#E79E15"/>
<rect x="2" y="9" width="1" height="1" fill="#E79E15"/>
<rect x="2" y="10" width="1" height="1" fill="#E79E15"/>
<rect x="2" y="11" width="1" height="1" fill="#E79E15"/>
<rect x="2" y="12" width="1" height="1" fill="#E79E15"/>
<rect x="2" y="13" width="1" height="1" fill="#E79E15"/>
<rect x="2" y="14" width="1" height="1" fill="#E79E15"/>
<rect x="2" y="15" width="1" height="1" fill="#E79E15"/>
<rect x="3" y="15" width="1" height="1" fill="#E79E15"/>
<rect x="3" y="16" width="1" height="1" fill="#E79E15"/>
<rect x="4" y="16" width="1" height="1" fill="#E79E15"/>
<rect x="4" y="17" width="1" height="1" fill="#E79E15"/>
<rect x="5" y="17" width="1" height="1" fill="#E79E15"/>
<rect x="5" y="18" width="1" height="1" fill="#E79E15"/>
<rect x="6" y="18" width="1" height="1" fill="#E79E15"/>
<rect x="6" y="19" width="1" height="1" fill="#E79E15"/>
<rect x="6" y="20" width="1" height="1" fill="#E79E15"/>
<rect x="7" y="19" width="1" height="1" fill="#E79E15"/>
<rect x="8" y="19" width="1" height="1" fill="#E79E15"/>
<rect x="7" y="20" width="1" height="1" fill="#E79E15"/>
<rect x="8" y="20" width="1" height="1" fill="#E79E15"/>
<rect x="9" y="20" width="1" height="1" fill="#E79E15"/>
<rect x="10" y="20" width="1" height="1" fill="#E79E15"/>
<rect x="11" y="20" width="1" height="1" fill="#E79E15"/>
<rect x="12" y="20" width="1" height="1" fill="#E79E15"/>
<rect x="13" y="20" width="1" height="1" fill="#E79E15"/>
<rect x="14" y="20" width="1" height="1" fill="#E79E15"/>
<rect x="15" y="20" width="1" height="1" fill="#E79E15"/>
<rect x="16" y="20" width="1" height="1" fill="#E79E15"/>
<rect x="17" y="19" width="1" height="1" fill="#E79E15"/>
<rect width="1" height="1" transform="matrix(-1 0 0 1 19 18)" fill="#E79E15"/>
<rect width="1" height="1" transform="matrix(-1 0 0 1 18 18)" fill="#E79E15"/>
<rect width="1" height="1" transform="matrix(-1 0 0 1 17 18)" fill="#E79E15"/>
<rect width="1" height="1" transform="matrix(-1 0 0 1 16 19)" fill="#E79E15"/>
<rect width="1" height="1" transform="matrix(-1 0 0 1 17 19)" fill="#E79E15"/>
<rect x="14" y="19" width="1" height="1" fill="#E79E15"/>
<rect x="8" y="21" width="1" height="1" fill="#E79E15"/>
<rect x="9" y="21" width="1" height="1" fill="#E79E15"/>
<rect x="10" y="21" width="1" height="1" fill="#E79E15"/>
<rect x="11" y="21" width="1" height="1" fill="#E79E15"/>
<rect x="12" y="21" width="1" height="1" fill="#E79E15"/>
<rect x="13" y="21" width="1" height="1" fill="#E79E15"/>
<rect x="14" y="21" width="1" height="1" fill="#E79E15"/>
<rect x="5" y="19" width="1" height="1" fill="#E79E15"/>
<rect x="4" y="18" width="1" height="1" fill="#E79E15"/>
<rect x="3" y="17" width="1" height="1" fill="#E79E15"/>
<rect x="2" y="16" width="1" height="1" fill="#E79E15"/>
<rect x="1" y="8" width="1" height="1" fill="#E79E15"/>
<rect x="3" y="8" width="1" height="1" fill="#E79E15"/>
<rect x="2" y="7" width="1" height="1" fill="#E79E15"/>
<rect x="2" y="6" width="1" height="1" fill="#E79E15"/>
<rect x="3" y="6" width="1" height="1" fill="#E79E15"/>
<rect x="3" y="5" width="1" height="1" fill="#E79E15"/>
<rect x="1" y="9" width="1" height="1" fill="#E79E15"/>
<rect x="1" y="10" width="1" height="1" fill="#E79E15"/>
<rect x="1" y="11" width="1" height="1" fill="#E79E15"/>
<rect x="1" y="12" width="1" height="1" fill="#E79E15"/>
<rect x="1" y="13" width="1" height="1" fill="#E79E15"/>
<rect x="1" y="14" width="1" height="1" fill="#E79E15"/>
<rect x="5" y="4" width="1" height="1" fill="#F7C116"/>
<rect x="5" y="5" width="1" height="1" fill="#F7C116"/>
<rect x="4" y="5" width="1" height="1" fill="#F7C116"/>
<rect x="4" y="4" width="1" height="1" fill="#F7C116"/>
<rect x="5" y="3" width="1" height="1" fill="#F7C116"/>
<rect x="7" y="3" width="1" height="1" fill="#F7C116"/>
<rect x="9" y="2" width="1" height="1" fill="#F7C116"/>
<rect x="10" y="2" width="1" height="1" fill="#F7C116"/>
<rect x="11" y="2" width="1" height="1" fill="#F7C116"/>
<rect x="12" y="2" width="1" height="1" fill="#F7C116"/>
<rect x="13" y="2" width="1" height="1" fill="#F7C116"/>
<rect x="14" y="2" width="1" height="1" fill="#F7C116"/>
<rect x="14" y="3" width="1" height="1" fill="#F7C116"/>
<rect x="15" y="3" width="1" height="1" fill="#F7C116"/>
<rect x="16" y="3" width="1" height="1" fill="#F7C116"/>
<rect x="16" y="4" width="1" height="1" fill="#F7C116"/>
<rect x="17" y="4" width="1" height="1" fill="#F7C116"/>
<rect x="18" y="4" width="1" height="1" fill="#F7C116"/>
<rect x="17" y="5" width="1" height="1" fill="#F7C116"/>
<rect x="18" y="5" width="1" height="1" fill="#F7C116"/>
<rect x="19" y="5" width="1" height="1" fill="#F7C116"/>
<rect x="18" y="6" width="1" height="1" fill="#F7C116"/>
<rect x="19" y="6" width="1" height="1" fill="#F7C116"/>
<rect x="20" y="6" width="1" height="1" fill="#F7C116"/>
<rect x="19" y="7" width="1" height="1" fill="#F7C116"/>
<rect x="20" y="7" width="1" height="1" fill="#F7C116"/>
<rect x="19" y="8" width="1" height="1" fill="#F7C116"/>
<rect x="20" y="8" width="1" height="1" fill="#F7C116"/>
<rect x="21" y="8" width="1" height="1" fill="#F7C116"/>
<rect x="21" y="9" width="1" height="1" fill="#F7C116"/>
<rect x="21" y="10" width="1" height="1" fill="#F7C116"/>
<rect x="21" y="11" width="1" height="1" fill="#F7C116"/>
<rect x="21" y="12" width="1" height="1" fill="#F7C116"/>
<rect x="21" y="13" width="1" height="1" fill="#F7C116"/>
<rect x="21" y="14" width="1" height="1" fill="#F7C116"/>
<rect x="20" y="9" width="1" height="1" fill="#F7C116"/>
<rect x="20" y="10" width="1" height="1" fill="#F7C116"/>
<rect x="20" y="11" width="1" height="1" fill="#F7C116"/>
<rect x="20" y="12" width="1" height="1" fill="#F7C116"/>
<rect x="20" y="13" width="1" height="1" fill="#F7C116"/>
<rect x="20" y="14" width="1" height="1" fill="#F7C116"/>
<rect x="19" y="15" width="1" height="1" fill="#F7C116"/>
<rect x="18" y="16" width="1" height="1" fill="#F7C116"/>
<rect x="17" y="17" width="1" height="1" fill="#F7C116"/>
<rect x="18" y="17" width="1" height="1" fill="#F7C116"/>
<rect x="19" y="17" width="1" height="1" fill="#F7C116"/>
<rect x="19" y="16" width="1" height="1" fill="#F7C116"/>
<rect x="20" y="15" width="1" height="1" fill="#F7C116"/>
<rect x="20" y="16" width="1" height="1" fill="#F7C116"/>
<rect x="17" y="3" width="1" height="1" fill="#F7C116"/>
<rect x="15" y="2" width="1" height="1" fill="#F7C116"/>
<rect x="16" y="2" width="1" height="1" fill="#F7C116"/>
<rect x="14" y="1" width="1" height="1" fill="#F7C116"/>
<rect x="13" y="1" width="1" height="1" fill="#F7C116"/>
<rect x="12" y="1" width="1" height="1" fill="#F7C116"/>
<rect x="11" y="1" width="1" height="1" fill="#F7C116"/>
<rect x="10" y="1" width="1" height="1" fill="#F7C116"/>
<rect x="9" y="1" width="1" height="1" fill="#F7C116"/>
<rect x="8" y="3" width="1" height="1" fill="#F7C116"/>
</svg>
