<svg width="69" height="71" viewBox="0 0 69 71" fill="none" xmlns="http://www.w3.org/2000/svg">
<path fill-rule="evenodd" clip-rule="evenodd" d="M68.7598 52H18.7598V50H68.7598V52Z" fill="#7C56E9"/>
<path fill-rule="evenodd" clip-rule="evenodd" d="M61.1499 40.54H68.7599V42.54H61.1499V40.54Z" fill="#7C56E9"/>
<path fill-rule="evenodd" clip-rule="evenodd" d="M18.7598 40.54H25.0098V42.54H18.7598V40.54Z" fill="#7C56E9"/>
<path fill-rule="evenodd" clip-rule="evenodd" d="M68.7598 45.7H18.7598V43.7H68.7598V45.7Z" fill="#7C56E9"/>
<path fill-rule="evenodd" clip-rule="evenodd" d="M68.7598 48.85H18.7598V46.85H68.7598V48.85Z" fill="#7C56E9"/>
<path fill-rule="evenodd" clip-rule="evenodd" d="M61.1499 37.66H68.7599V39.66H61.1499V37.66Z" fill="#7C56E9"/>
<path fill-rule="evenodd" clip-rule="evenodd" d="M18.7598 37.66H25.0098V39.66H18.7598V37.66Z" fill="#7C56E9"/>
<path fill-rule="evenodd" clip-rule="evenodd" d="M61.1499 28.21H68.7599V30.21H61.1499V28.21Z" fill="#7C56E9"/>
<path fill-rule="evenodd" clip-rule="evenodd" d="M18.7598 28.21H25.0098V30.21H18.7598V28.21Z" fill="#7C56E9"/>
<path fill-rule="evenodd" clip-rule="evenodd" d="M61.1499 31.36H68.7599V33.36H61.1499V31.36Z" fill="#7C56E9"/>
<path fill-rule="evenodd" clip-rule="evenodd" d="M18.7598 31.36H25.0098V33.36H18.7598V31.36Z" fill="#7C56E9"/>
<path fill-rule="evenodd" clip-rule="evenodd" d="M61.1499 34.51H68.7599V36.51H61.1499V34.51Z" fill="#7C56E9"/>
<path fill-rule="evenodd" clip-rule="evenodd" d="M18.7598 34.51H25.0098V36.51H18.7598V34.51Z" fill="#7C56E9"/>
<path fill-rule="evenodd" clip-rule="evenodd" d="M61.1499 24.93H68.7599V26.93H61.1499V24.93Z" fill="#7C56E9"/>
<path fill-rule="evenodd" clip-rule="evenodd" d="M61.1499 15.48H68.7599V17.48H61.1499V15.48Z" fill="#7C56E9"/>
<path fill-rule="evenodd" clip-rule="evenodd" d="M18.7598 15.48H25.0098V17.48H18.7598V15.48Z" fill="#7C56E9"/>
<path fill-rule="evenodd" clip-rule="evenodd" d="M61.1499 18.63H68.7599V20.63H61.1499V18.63Z" fill="#7C56E9"/>
<path fill-rule="evenodd" clip-rule="evenodd" d="M61.1499 21.78H68.7599V23.78H61.1499V21.78Z" fill="#7C56E9"/>
<path fill-rule="evenodd" clip-rule="evenodd" d="M61.1499 12.59H68.7599V14.59H61.1499V12.59Z" fill="#7C56E9"/>
<path fill-rule="evenodd" clip-rule="evenodd" d="M18.7598 12.59H25.0098V14.59H18.7598V12.59Z" fill="#7C56E9"/>
<path fill-rule="evenodd" clip-rule="evenodd" d="M68.7598 5.14999H18.7598V3.14999H68.7598V5.14999Z" fill="#7C56E9"/>
<path fill-rule="evenodd" clip-rule="evenodd" d="M68.7598 8.28999H18.7598V6.28999H68.7598V8.28999Z" fill="#7C56E9"/>
<path fill-rule="evenodd" clip-rule="evenodd" d="M61.1499 9.43999H68.7599V11.44H61.1499V9.43999Z" fill="#7C56E9"/>
<path fill-rule="evenodd" clip-rule="evenodd" d="M18.7598 9.43999H25.0098V11.44H18.7598V9.43999Z" fill="#7C56E9"/>
<path fill-rule="evenodd" clip-rule="evenodd" d="M68.7598 2H18.7598V0H68.7598V2Z" fill="#7C56E9"/>
<path fill-rule="evenodd" clip-rule="evenodd" d="M50 70.7H0V68.7H50V70.7Z" fill="#7C56E9"/>
<path fill-rule="evenodd" clip-rule="evenodd" d="M42.3901 59.24H50.0001V61.24H42.3901V59.24Z" fill="#7C56E9"/>
<path fill-rule="evenodd" clip-rule="evenodd" d="M0 59.24H6.25V61.24H0V59.24Z" fill="#7C56E9"/>
<path fill-rule="evenodd" clip-rule="evenodd" d="M50 64.4H0V62.4H50V64.4Z" fill="#7C56E9"/>
<path fill-rule="evenodd" clip-rule="evenodd" d="M50 67.55H0V65.55H50V67.55Z" fill="#7C56E9"/>
<path fill-rule="evenodd" clip-rule="evenodd" d="M42.3901 56.36H50.0001V58.36H42.3901V56.36Z" fill="#7C56E9"/>
<path fill-rule="evenodd" clip-rule="evenodd" d="M0 56.36H6.25V58.36H0V56.36Z" fill="#7C56E9"/>
<path fill-rule="evenodd" clip-rule="evenodd" d="M0 46.91H6.25V48.91H0V46.91Z" fill="#7C56E9"/>
<path fill-rule="evenodd" clip-rule="evenodd" d="M0 50.06H6.25V52.06H0V50.06Z" fill="#7C56E9"/>
<path fill-rule="evenodd" clip-rule="evenodd" d="M42.3901 53.21H50.0001V55.21H42.3901V53.21Z" fill="#7C56E9"/>
<path fill-rule="evenodd" clip-rule="evenodd" d="M0 53.21H6.25V55.21H0V53.21Z" fill="#7C56E9"/>
<path fill-rule="evenodd" clip-rule="evenodd" d="M0 43.63H6.25V45.63H0V43.63Z" fill="#7C56E9"/>
<path fill-rule="evenodd" clip-rule="evenodd" d="M42.3901 34.18H50.0001V36.18H42.3901V34.18Z" fill="#7C56E9"/>
<path fill-rule="evenodd" clip-rule="evenodd" d="M0 34.18H6.25V36.18H0V34.18Z" fill="#7C56E9"/>
<path fill-rule="evenodd" clip-rule="evenodd" d="M42.3901 37.33H50.0001V39.33H42.3901V37.33Z" fill="#7C56E9"/>
<path fill-rule="evenodd" clip-rule="evenodd" d="M0 37.33H6.25V39.33H0V37.33Z" fill="#7C56E9"/>
<path fill-rule="evenodd" clip-rule="evenodd" d="M42.3901 40.48H50.0001V42.48H42.3901V40.48Z" fill="#7C56E9"/>
<path fill-rule="evenodd" clip-rule="evenodd" d="M0 40.48H6.25V42.48H0V40.48Z" fill="#7C56E9"/>
<path fill-rule="evenodd" clip-rule="evenodd" d="M42.3901 31.29H50.0001V33.29H42.3901V31.29Z" fill="#7C56E9"/>
<path fill-rule="evenodd" clip-rule="evenodd" d="M0 31.29H6.25V33.29H0V31.29Z" fill="#7C56E9"/>
<path fill-rule="evenodd" clip-rule="evenodd" d="M50 23.85H0V21.85H50V23.85Z" fill="#7C56E9"/>
<path fill-rule="evenodd" clip-rule="evenodd" d="M50 27H0V25H50V27Z" fill="#7C56E9"/>
<path fill-rule="evenodd" clip-rule="evenodd" d="M42.3901 28.14H50.0001V30.14H42.3901V28.14Z" fill="#7C56E9"/>
<path fill-rule="evenodd" clip-rule="evenodd" d="M0 28.14H6.25V30.14H0V28.14Z" fill="#7C56E9"/>
<path fill-rule="evenodd" clip-rule="evenodd" d="M50 20.7H0V18.7H50V20.7Z" fill="#7C56E9"/>
</svg>
