<svg width="10" height="10" viewBox="0 0 10 10" fill="none" xmlns="http://www.w3.org/2000/svg">
<g clip-path="url(#clip0_926_28623)">
<path d="M4.02868 1.50309C3.91638 1.48607 3.91104 1.48039 3.96451 1.47471C4.06612 1.45769 4.30141 1.48039 4.46719 1.52012C4.85221 1.61661 5.19981 1.86636 5.56879 2.3034L5.66505 2.4226L5.80408 2.39989C6.39767 2.29773 7.00729 2.37719 7.51531 2.62693C7.65435 2.69504 7.8736 2.83127 7.90034 2.86532C7.91104 2.87667 7.92708 2.95046 7.93777 3.02425C7.97521 3.29102 7.95916 3.48968 7.87895 3.64293C7.83617 3.72807 7.83617 3.75077 7.86291 3.82456C7.8843 3.88132 7.94847 3.92105 8.00729 3.92105C8.13563 3.92105 8.26932 3.70536 8.3335 3.40454L8.36023 3.28534L8.40836 3.3421C8.68109 3.66563 8.89499 4.11403 8.92708 4.43189L8.93777 4.51703L8.88965 4.44324C8.80943 4.31269 8.73457 4.22755 8.63296 4.15376C8.45114 4.02322 8.25863 3.98349 7.75061 3.95511C7.29072 3.92673 7.02868 3.88699 6.772 3.79618C6.3335 3.64293 6.1089 3.44427 5.59018 2.71207C5.36023 2.38854 5.21585 2.21259 5.07146 2.06501C4.75596 1.74148 4.44045 1.57121 4.02868 1.50309Z" fill="#FF007A"/>
<path d="M8.01325 2.22394C8.02395 2.00825 8.05069 1.86635 8.10951 1.7358C8.1309 1.68472 8.15229 1.63931 8.15764 1.63931C8.16298 1.63931 8.15229 1.67904 8.13625 1.72445C8.09347 1.84932 8.08812 2.02528 8.11486 2.22394C8.15229 2.47935 8.16833 2.51341 8.42502 2.79153C8.54266 2.92208 8.6817 3.08668 8.73518 3.15479L8.82609 3.27966L8.73518 3.18885C8.62288 3.07533 8.36619 2.85964 8.30737 2.83126C8.26994 2.80856 8.26459 2.80856 8.23785 2.83694C8.21646 2.85964 8.21111 2.8937 8.21111 3.0583C8.20577 3.31372 8.17368 3.47265 8.09347 3.63725C8.05069 3.72239 8.04534 3.70536 8.08277 3.60887C8.10951 3.53508 8.11486 3.50103 8.11486 3.25696C8.11486 2.76315 8.06138 2.64396 7.73518 2.4453C7.65496 2.39421 7.51593 2.32043 7.43571 2.2807C7.35015 2.24096 7.28598 2.20691 7.29133 2.20691C7.30202 2.19556 7.61753 2.29205 7.74052 2.34881C7.92769 2.42827 7.95978 2.43395 7.98117 2.42827C7.99721 2.41124 8.0079 2.36583 8.01325 2.22394Z" fill="#FF007A"/>
<path d="M4.24955 3.06966C4.02495 2.74045 3.88057 2.22962 3.91265 1.84933L3.92335 1.73013L3.97682 1.74149C4.07308 1.75851 4.23886 1.82662 4.31907 1.87771C4.53297 2.01393 4.62923 2.20124 4.72014 2.66667C4.74688 2.80289 4.78431 2.96181 4.80035 3.0129C4.82709 3.09804 4.9287 3.2967 5.01426 3.42157C5.07308 3.51238 5.03565 3.55779 4.90196 3.54644C4.69875 3.52373 4.42602 3.32508 4.24955 3.06966Z" fill="#FF007A"/>
<path d="M7.7398 5.53869C6.68097 5.08462 6.30664 4.69298 6.30664 4.02889C6.30664 3.9324 6.31199 3.85294 6.31199 3.85294C6.31734 3.85294 6.35477 3.88699 6.4029 3.92672C6.6168 4.10835 6.85744 4.18782 7.52589 4.28998C7.91627 4.35242 8.14087 4.39783 8.34407 4.47161C8.99113 4.69865 9.3922 5.16408 9.48846 5.79411C9.5152 5.97574 9.49915 6.32198 9.45637 6.50361C9.41894 6.64551 9.31199 6.9066 9.28525 6.91228C9.2799 6.91228 9.26921 6.8839 9.26921 6.83849C9.25851 6.6001 9.14621 6.37306 8.95905 6.19711C8.73445 5.99277 8.44568 5.83952 7.7398 5.53869Z" fill="#FF007A"/>
<path d="M6.99197 5.72601C6.98127 5.64087 6.95454 5.53303 6.93849 5.48762L6.91176 5.40248L6.95988 5.46492C7.0294 5.55006 7.08288 5.65222 7.13101 5.79412C7.16844 5.90196 7.16844 5.93602 7.16844 6.11198C7.16844 6.28225 7.16309 6.32199 7.13101 6.41848C7.07753 6.57173 7.01336 6.67957 6.90641 6.79877C6.71389 7.00878 6.46256 7.1223 6.10427 7.17338C6.0401 7.17905 5.85828 7.19608 5.69785 7.20743C5.29678 7.23014 5.0294 7.27555 4.78876 7.36636C4.75668 7.37771 4.72459 7.38906 4.71924 7.38339C4.70855 7.37204 4.87432 7.26987 5.00801 7.20176C5.19518 7.10527 5.38769 7.05418 5.81015 6.97472C6.01871 6.94066 6.23261 6.89526 6.28609 6.87255C6.8155 6.6966 7.07753 6.25955 6.99197 5.72601Z" fill="#FF007A"/>
<path d="M7.47931 6.63984C7.34027 6.31631 7.30819 6.00981 7.38305 5.72033C7.39375 5.69195 7.40445 5.66357 7.41514 5.66357C7.42584 5.66357 7.45792 5.6806 7.49001 5.70331C7.55418 5.74871 7.68787 5.82818 8.03011 6.02684C8.46327 6.27658 8.70926 6.46956 8.88038 6.69092C9.03011 6.8839 9.12102 7.10527 9.1638 7.37771C9.19054 7.53096 9.1745 7.8999 9.13707 8.05315C9.01942 8.53561 8.75204 8.92157 8.36166 9.14293C8.30284 9.17699 8.25471 9.19969 8.24936 9.19969C8.24402 9.19969 8.26541 9.14293 8.29749 9.07482C8.42584 8.78535 8.44188 8.50723 8.34562 8.19505C8.2868 8.00207 8.1638 7.76935 7.91781 7.37771C7.6237 6.92364 7.55418 6.80444 7.47931 6.63984Z" fill="#FF007A"/>
<path d="M3.49511 8.37668C3.89083 8.02477 4.37746 7.77503 4.82666 7.69557C5.01918 7.66151 5.34003 7.67286 5.5165 7.72395C5.79992 7.80341 6.05661 7.97369 6.1903 8.1837C6.31864 8.38804 6.37746 8.56399 6.43629 8.95563C6.45768 9.10888 6.48442 9.26781 6.48976 9.30186C6.53255 9.5062 6.61811 9.66512 6.72506 9.75026C6.89083 9.88081 7.1796 9.88649 7.46303 9.77297C7.51115 9.75594 7.55394 9.73891 7.55394 9.74459C7.56463 9.75594 7.42025 9.85811 7.32399 9.90919C7.1903 9.98298 7.08335 10.0057 6.93896 10.0057C6.68228 10.0057 6.46303 9.86378 6.28656 9.57998C6.24912 9.52323 6.17426 9.35862 6.11009 9.20537C5.92292 8.74562 5.82666 8.6094 5.60741 8.45615C5.4149 8.3256 5.16891 8.29722 4.98174 8.39371C4.73575 8.51858 4.67158 8.85346 4.84271 9.0578C4.91222 9.14294 5.04057 9.21105 5.14752 9.22808C5.34538 9.25646 5.5165 9.09185 5.5165 8.88184C5.5165 8.74562 5.46837 8.66616 5.34003 8.60372C5.16891 8.52426 4.98174 8.61507 4.98709 8.79103C4.98709 8.86482 5.01918 8.91022 5.08869 8.94428C5.13148 8.96698 5.13148 8.96698 5.09939 8.96131C4.94431 8.92725 4.90688 8.72292 5.02987 8.59237C5.1796 8.43344 5.49511 8.50155 5.60206 8.72292C5.64484 8.81373 5.65019 8.99536 5.61276 9.10888C5.52185 9.35862 5.26517 9.48917 5.00313 9.41538C4.82666 9.3643 4.7518 9.31322 4.53789 9.0805C4.16356 8.67183 4.01918 8.59237 3.48442 8.50723L3.38281 8.4902L3.49511 8.37668Z" fill="#FF007A"/>
<path fill-rule="evenodd" clip-rule="evenodd" d="M0.682056 -0.755934C1.92805 0.850361 3.84783 3.34778 3.94409 3.484C4.0243 3.59752 3.99222 3.70537 3.85853 3.78483C3.78366 3.83024 3.62858 3.87564 3.55371 3.87564C3.46815 3.87564 3.36655 3.83024 3.29703 3.75645C3.2489 3.70537 3.04034 3.38184 2.56976 2.60423C2.21147 2.00826 1.90665 1.51445 1.90131 1.50877C1.87992 1.49742 1.87992 1.49742 2.53232 2.73478C2.94409 3.51238 3.07778 3.79051 3.07778 3.82456C3.07778 3.89835 3.05639 3.93808 2.97083 4.04025C2.82644 4.21053 2.76227 4.40351 2.71414 4.8065C2.66067 5.2549 2.51628 5.57276 2.10452 6.11197C1.86387 6.42982 1.82644 6.48658 1.76762 6.61713C1.69275 6.77606 1.67136 6.86687 1.66067 7.07121C1.64997 7.28689 1.67136 7.42312 1.73018 7.62745C1.78366 7.80908 1.84248 7.92828 1.98687 8.16099C2.10986 8.36532 2.18473 8.51858 2.18473 8.57533C2.18473 8.62074 2.19542 8.62074 2.38794 8.57533C2.84783 8.46182 3.22751 8.26883 3.43607 8.03044C3.56441 7.88287 3.59649 7.8034 3.59649 7.59907C3.59649 7.46852 3.59115 7.44014 3.55906 7.36068C3.50559 7.23581 3.40398 7.13364 3.18473 6.97472C2.89596 6.76471 2.77296 6.59443 2.74088 6.36739C2.71414 6.17441 2.74623 6.04386 2.90665 5.68627C3.07243 5.31734 3.11521 5.16409 3.14195 4.78947C3.15799 4.55108 3.18473 4.45459 3.2489 4.38081C3.31842 4.30134 3.37724 4.27296 3.54302 4.25026C3.81575 4.21053 3.99222 4.13674 4.13125 3.99484C4.25425 3.87564 4.30772 3.75645 4.31307 3.58049L4.31842 3.44995L4.2489 3.37048C3.99756 3.06398 0.516281 -1 0.500238 -1C0.49489 -1 0.580452 -0.892157 0.682056 -0.755934ZM2.32377 7.31527C2.38259 7.20743 2.3505 7.07121 2.25425 7.0031C2.16334 6.94066 2.0243 6.96904 2.0243 7.05418C2.0243 7.07688 2.035 7.09959 2.06708 7.11094C2.11521 7.13932 2.12056 7.1677 2.08313 7.23013C2.04569 7.29257 2.04569 7.34933 2.09382 7.38906C2.16869 7.4515 2.27029 7.41744 2.32377 7.31527Z" fill="#FF007A"/>
<path fill-rule="evenodd" clip-rule="evenodd" d="M4.48913 4.32972C4.36078 4.36945 4.23779 4.51702 4.20036 4.6646C4.17896 4.75541 4.18966 4.92002 4.22709 4.9711C4.28592 5.05056 4.33939 5.07327 4.48913 5.07327C4.78324 5.07327 5.03458 4.93704 5.06132 4.77244C5.08806 4.63622 4.97576 4.44891 4.82068 4.36377C4.74046 4.31836 4.57469 4.30134 4.48913 4.32972ZM4.83137 4.61351C4.87415 4.5454 4.85811 4.47162 4.7779 4.42053C4.63351 4.32404 4.41426 4.4035 4.41426 4.55108C4.41426 4.62487 4.52656 4.70433 4.63351 4.70433C4.70303 4.70433 4.79929 4.65892 4.83137 4.61351Z" fill="#FF007A"/>
</g>
<defs>
<clipPath id="clip0_926_28623">
<rect width="9" height="11" fill="white" transform="translate(0.5 -1)"/>
</clipPath>
</defs>
</svg>
