<svg width="40" height="40" viewBox="0 0 40 40" fill="none" xmlns="http://www.w3.org/2000/svg">
<path d="M24.1956 18.3277L27.1331 13.3432L35.051 25.6756L35.0547 28.0424L35.029 11.7563C35.0102 11.3582 34.7988 10.994 34.4615 10.7792L20.2063 2.57938C19.8731 2.41543 19.45 2.41732 19.1171 2.58458C19.0722 2.60699 19.0298 2.63154 18.9896 2.65831L18.9398 2.68954L5.103 10.7079L5.04937 10.7322C4.98032 10.764 4.91046 10.8043 4.84504 10.8512C4.58263 11.0393 4.40846 11.3175 4.3521 11.6296C4.34362 11.6769 4.33736 11.725 4.33447 11.7737L4.35622 25.0453L11.7313 13.6142C12.6599 12.0984 14.6829 11.6102 16.561 11.6367L18.7652 11.6949L5.77769 32.5231L7.30865 33.4045L20.4516 11.7161L26.2609 11.695L13.1518 33.9307L18.6147 37.0729L19.2674 37.4482C19.5435 37.5604 19.869 37.5661 20.1474 37.4655L34.6029 29.0883L31.8392 30.6898L24.1956 18.3277ZM25.3162 34.47L19.7987 25.8102L23.1668 20.0948L30.4132 31.5163L25.3162 34.47Z" fill="#2D374B"/>
<path d="M19.7988 25.8102L25.3163 34.4701L30.4133 31.5162L23.1669 20.0947L19.7988 25.8102Z" fill="#28A0F0"/>
<path d="M35.055 28.0423L35.0512 25.6755L27.1333 13.3431L24.1958 18.3277L31.8394 30.6897L34.6031 29.0882C34.8741 28.868 35.0382 28.5449 35.0554 28.1963L35.055 28.0423Z" fill="#28A0F0"/>
<path d="M1.875 30.2742L5.77771 32.5231L18.7651 11.6949L16.5609 11.6368C14.6829 11.6102 12.6598 12.0985 11.7313 13.6142L4.35616 25.0453L1.875 28.8576V30.2742Z" fill="white"/>
<path d="M26.2608 11.6949L20.4515 11.716L7.30859 33.4044L11.9025 36.0494L13.1517 33.9307L26.2608 11.6949Z" fill="white"/>
<path d="M37.5029 11.6651C37.4543 10.4502 36.7965 9.33797 35.7661 8.69047L21.3241 0.385192C20.3048 -0.128013 19.0316 -0.128672 18.0105 0.384862C17.8898 0.445748 3.96597 8.521 3.96597 8.521C3.77326 8.61344 3.58763 8.72351 3.41305 8.8485C2.49325 9.5077 1.93259 10.5321 1.875 11.6576V28.8576L4.35616 25.0454L4.33449 11.7738C4.33738 11.7253 4.34347 11.6775 4.35213 11.6304C4.40823 11.3181 4.58257 11.0396 4.84506 10.8513C4.91056 10.8044 19.0723 2.60707 19.1172 2.58458C19.4501 2.41741 19.8732 2.41544 20.2064 2.57939L34.4616 10.779C34.7989 10.9938 35.0103 11.358 35.0291 11.7561V28.1963C35.0118 28.5449 34.874 28.8679 34.6029 29.0882L31.8393 30.6896L30.4133 31.5161L25.3163 34.4699L20.1474 37.4654C19.869 37.566 19.5435 37.5603 19.2674 37.4481L13.1518 33.9306L11.9026 36.0494L17.3984 39.2137C17.5802 39.3171 17.7421 39.4087 17.875 39.4833C18.0807 39.5986 18.2209 39.6758 18.2704 39.6999C18.6611 39.8896 19.2231 40 19.7296 40C20.1939 40 20.6467 39.9147 21.0752 39.7469L36.0886 31.0522C36.9503 30.3846 37.4572 29.3777 37.5029 28.2869V11.6651Z" fill="#96BEDC"/>
</svg>
