<svg width="40" height="40" viewBox="0 0 40 40" fill="none" xmlns="http://www.w3.org/2000/svg">
<path d="M9.1732 6.12683L19.7878 0L30.4025 6.12683L26.5 8.39025L19.7878 4.52683L13.0756 8.39025L9.1732 6.12683ZM30.4025 13.8537L26.5 11.5903L19.7878 15.4537L13.0756 11.5903L9.1732 13.8537V18.3805L15.8854 22.2438V29.9707L19.7878 32.2342L23.6903 29.9707V22.2438L30.4025 18.3805V13.8537ZM30.4025 26.1073V21.5805L26.5 23.8438V28.3707L30.4025 26.1073ZM33.1732 27.7073L26.461 31.5707V36.0975L37.0757 29.9707V17.717L33.1732 19.9805V27.7073ZM29.2708 9.99025L33.1732 12.2536V16.7805L37.0757 14.5171V9.99025L33.1732 7.72683L29.2708 9.99025ZM15.8854 33.2098V37.7367L19.7878 40L23.6903 37.7367V33.2098L19.7878 35.4732L15.8854 33.2098ZM9.1732 26.1073L13.0756 28.3707V23.8438L9.1732 21.5805V26.1073ZM15.8854 9.99025L19.7878 12.2536L23.6903 9.99025L19.7878 7.72683L15.8854 9.99025ZM6.40243 12.2536L10.3049 9.99025L6.40243 7.72683L2.5 9.99025V14.5171L6.40243 16.7805V12.2536ZM6.40243 19.9805L2.5 17.717V29.9707L13.1146 36.0975V31.5707L6.40243 27.7073V19.9805Z" fill="#F0B90B"/>
</svg>
